<svg width="58" height="59" viewBox="0 0 58 59" fill="none" xmlns="http://www.w3.org/2000/svg">
<path d="M39.0882 28.1647C36.2047 30.1956 17.3226 43.5002 12.9509 46.5827L5.55859 40.0775L26.5759 17.1538L39.0882 28.1647ZM53.6396 4.36544C48.0071 -0.591216 38.8716 -0.591216 33.2391 4.36544C29.5251 7.63612 29.2099 11.2203 29.029 12.4915L44.4055 26.0228C45.7321 25.8926 49.8928 25.6151 53.6396 22.318C59.2749 17.3613 59.2749 9.3221 53.6396 4.36544ZM26.6855 47.6367C20.4033 47.6367 17.5337 51.0787 13.4853 53.317C10.6183 54.8993 7.90481 54.096 6.60014 52.6754C6.12596 52.1664 4.77195 50.3333 7.07706 48.2325L6.73444 47.931L3.64818 45.2995C-0.112346 48.7149 0.553694 52.796 2.88347 55.3262C5.55585 58.2302 10.9308 59.6967 16.0262 56.882C20.3704 54.482 22.2946 51.8457 26.6855 51.8457C29.5251 51.8457 32.1125 52.9649 36.2376 58.5341L40.242 56.2379C36.424 51.0762 32.6552 47.6367 26.6855 47.6367Z" fill="#EAEAEA"/>
</svg>
