<svg width="67" height="59" viewBox="0 0 67 59" fill="none" xmlns="http://www.w3.org/2000/svg">
<mask id="mask0_7_113" style="mask-type:luminance" maskUnits="userSpaceOnUse" x="0" y="0" width="67" height="59">
<path d="M66.8374 0.647949H0.10907V58.5359H66.8374V0.647949Z" fill="white"/>
</mask>
<g mask="url(#mask0_7_113)">
<path d="M33.4732 5.47195C48.804 5.47195 61.2766 16.2922 61.2766 29.5919C61.2766 42.8917 48.804 53.712 33.4732 53.712C18.1424 53.712 5.66976 42.8917 5.66976 29.5919C5.66976 16.2922 18.1424 5.47195 33.4732 5.47195ZM33.4732 0.647949C15.0479 0.647949 0.10907 13.6077 0.10907 29.5919C0.10907 45.5763 15.0479 58.536 33.4732 58.536C51.8986 58.536 66.8374 45.5763 66.8374 29.5919C66.8374 13.6077 51.8986 0.647949 33.4732 0.647949ZM39.034 29.5919L26.5224 40.446L30.768 44.064L47.375 29.5919L30.768 15.1199L26.5224 18.7379L39.034 29.5919Z" fill="#EAEAEA"/>
</g>
</svg>
